<mxfile host="app.diagrams.net" modified="2023-08-13T10:46:47.224Z" agent="Mozilla/5.0 (Macintosh; Intel Mac OS X 10_15_7) AppleWebKit/537.36 (KHTML, like Gecko) Chrome/115.0.0.0 Safari/537.36" etag="hxE-yuFtJWwH8mn7kaYf" version="21.5.0" type="device">
  <diagram name="Page-1" id="X_qM9OTmiBhI661A6jQA">
    <mxGraphModel dx="1194" dy="760" grid="1" gridSize="10" guides="1" tooltips="1" connect="1" arrows="1" fold="1" page="1" pageScale="1" pageWidth="850" pageHeight="1100" math="0" shadow="0">
      <root>
        <mxCell id="0" />
        <mxCell id="1" parent="0" />
        <mxCell id="2CR0PQKLrgT7-EzTYdQ6-1" value="" style="verticalLabelPosition=bottom;verticalAlign=top;html=1;shadow=0;dashed=0;strokeWidth=1;shape=mxgraph.android.phone2;strokeColor=#c0c0c0;" vertex="1" parent="1">
          <mxGeometry x="320" y="90" width="280" height="580" as="geometry" />
        </mxCell>
        <mxCell id="2CR0PQKLrgT7-EzTYdQ6-2" value="My Card" style="rounded=0;whiteSpace=wrap;html=1;" vertex="1" parent="1">
          <mxGeometry x="330" y="140" width="260" height="60" as="geometry" />
        </mxCell>
        <mxCell id="2CR0PQKLrgT7-EzTYdQ6-3" value="" style="ellipse;whiteSpace=wrap;html=1;aspect=fixed;" vertex="1" parent="1">
          <mxGeometry x="420" y="250" width="80" height="80" as="geometry" />
        </mxCell>
        <mxCell id="2CR0PQKLrgT7-EzTYdQ6-4" value="Profile &lt;br&gt;Image" style="text;html=1;align=center;verticalAlign=middle;resizable=0;points=[];autosize=1;strokeColor=none;fillColor=none;" vertex="1" parent="1">
          <mxGeometry x="640" y="210" width="60" height="40" as="geometry" />
        </mxCell>
        <mxCell id="2CR0PQKLrgT7-EzTYdQ6-5" value="" style="endArrow=classic;html=1;rounded=0;exitX=0.95;exitY=0.263;exitDx=0;exitDy=0;exitPerimeter=0;" edge="1" parent="1" source="2CR0PQKLrgT7-EzTYdQ6-3">
          <mxGeometry width="50" height="50" relative="1" as="geometry">
            <mxPoint x="590" y="280" as="sourcePoint" />
            <mxPoint x="640" y="230" as="targetPoint" />
          </mxGeometry>
        </mxCell>
        <mxCell id="2CR0PQKLrgT7-EzTYdQ6-6" value="&lt;b&gt;Name&lt;/b&gt;" style="text;html=1;align=center;verticalAlign=middle;resizable=0;points=[];autosize=1;strokeColor=none;fillColor=none;" vertex="1" parent="1">
          <mxGeometry x="430" y="338" width="60" height="30" as="geometry" />
        </mxCell>
        <mxCell id="2CR0PQKLrgT7-EzTYdQ6-7" value="Designation" style="text;html=1;align=center;verticalAlign=middle;resizable=0;points=[];autosize=1;strokeColor=none;fillColor=none;" vertex="1" parent="1">
          <mxGeometry x="415" y="368" width="90" height="30" as="geometry" />
        </mxCell>
        <mxCell id="2CR0PQKLrgT7-EzTYdQ6-10" value="" style="endArrow=none;html=1;rounded=0;strokeWidth=2;" edge="1" parent="1">
          <mxGeometry width="50" height="50" relative="1" as="geometry">
            <mxPoint x="400" y="410" as="sourcePoint" />
            <mxPoint x="520" y="410" as="targetPoint" />
          </mxGeometry>
        </mxCell>
        <mxCell id="2CR0PQKLrgT7-EzTYdQ6-11" value="1234567890" style="rounded=1;whiteSpace=wrap;html=1;" vertex="1" parent="1">
          <mxGeometry x="350" y="420" width="220" height="60" as="geometry" />
        </mxCell>
        <mxCell id="2CR0PQKLrgT7-EzTYdQ6-12" value="abc@abc.com" style="rounded=1;whiteSpace=wrap;html=1;" vertex="1" parent="1">
          <mxGeometry x="350" y="490" width="220" height="60" as="geometry" />
        </mxCell>
        <mxCell id="2CR0PQKLrgT7-EzTYdQ6-14" value="" style="verticalLabelPosition=bottom;verticalAlign=top;html=1;shadow=0;dashed=0;strokeWidth=1;shape=mxgraph.android.phone2;strokeColor=#c0c0c0;" vertex="1" parent="1">
          <mxGeometry x="360" y="437.5" width="10" height="25" as="geometry" />
        </mxCell>
        <mxCell id="2CR0PQKLrgT7-EzTYdQ6-15" value="" style="verticalLabelPosition=bottom;shadow=0;dashed=0;align=center;html=1;verticalAlign=top;strokeWidth=1;shape=mxgraph.mockup.misc.mail2;strokeColor=#999999;" vertex="1" parent="1">
          <mxGeometry x="360" y="515" width="20" height="10" as="geometry" />
        </mxCell>
      </root>
    </mxGraphModel>
  </diagram>
</mxfile>
